<?xml version="1.0" encoding="UTF-8"?>
<svg version="1.1" xmlns="http://www.w3.org/2000/svg" width="500" height="500">
<path d="M0 0 C0.04646827 9.88409648 0.0819426 19.7681667 0.10362434 29.65235043 C0.11403376 34.24263828 0.12814073 38.83285105 0.15087891 43.4230957 C0.17270905 47.85810134 0.18458998 52.29303504 0.18975449 56.72809029 C0.19343205 58.41485284 0.20061316 60.10161174 0.21146011 61.78834343 C0.31188082 78.06040929 0.31188082 78.06040929 -2 86 C-2.93682617 85.98428955 -3.87365234 85.9685791 -4.83886719 85.95239258 C-8.37261686 85.9007334 -11.90595527 85.86339578 -15.43994141 85.83520508 C-16.95856121 85.82027888 -18.47713917 85.79993041 -19.99560547 85.77368164 C-31.50487227 85.57996131 -42.36367136 86.0361153 -52.75 91.6875 C-53.56984375 92.12449219 -54.3896875 92.56148438 -55.234375 93.01171875 C-56.10835938 93.50091797 -56.10835938 93.50091797 -57 94 C-53.47225277 94 -50.42741186 91.83746345 -47.3125 90.2890625 C-40.0201082 87.45122135 -32.58976665 86.63643714 -24.8125 86.6875 C-23.93883789 86.68951416 -23.06517578 86.69152832 -22.16503906 86.69360352 C-11.15914023 86.85112709 -0.2299819 88.12380409 10.70703125 89.265625 C18.79674348 90.10497571 26.87507829 90.64989193 35 91 C33.44680054 95.44631064 31.07739941 99.20086801 28.4921875 103.1015625 C27.82571701 104.11722794 27.82571701 104.11722794 27.14578247 105.15341187 C26.20479599 106.58529057 25.26162148 108.01573347 24.31640625 109.44482422 C22.89561733 111.59381559 21.48241047 113.74763443 20.0703125 115.90234375 C19.14898648 117.30244474 18.22711692 118.70218822 17.3046875 120.1015625 C16.85478958 120.78602951 16.40489166 121.47049652 15.94136047 122.17570496 C13.88814992 125.27161163 11.80683037 128.30578647 9.51635742 131.23168945 C5.26932613 136.41128141 5.26932613 136.41128141 3.69140625 142.71484375 C4.12259766 144.31005859 4.12259766 144.31005859 4.5625 145.9375 C7.08481592 157.78591733 5.52417968 168.3726301 -0.69140625 178.8515625 C-9.57429043 191.87979263 -23.44304127 200.98681574 -39 204 C-51.51426307 205.49524564 -51.51426307 205.49524564 -56 204 C-56.0825 204.86625 -56.165 205.7325 -56.25 206.625 C-57.1227713 210.55247085 -58.60689478 212.78640157 -61 216 C-61.60199219 216.81339844 -62.20398438 217.62679687 -62.82421875 218.46484375 C-72.533184 229.77744419 -90.67288719 235.05178851 -105 237 C-116.83482845 237.8215494 -128.78844584 237.80609357 -139.3359375 231.6328125 C-141.67105835 230.27557619 -143.31948585 229.4049381 -146 229 C-149.47892073 230.11807094 -152.49422595 231.58732568 -155.69140625 233.3515625 C-166.37390846 238.67389536 -179.69359913 238.59414632 -191 235.3125 C-195.04181216 233.95357181 -198.01963311 232.32102616 -201.4375 229.8125 C-203.50799109 228.38431017 -203.50799109 228.38431017 -206 228 C-209.8275621 229.33987005 -213.15265682 231.12994417 -216.6640625 233.1328125 C-226.08323911 238.40490433 -238.135713 238.32178831 -248.5703125 236.3125 C-260.9471715 232.80133433 -271.96341634 226.18579657 -278.82421875 215.03515625 C-281.1534818 210.56274561 -283.04366015 206.5806635 -283.6875 201.5625 C-284.62156428 197.90155972 -284.62156428 197.90155972 -287.34765625 196.54296875 C-289.29414999 195.67582282 -291.26158414 194.85433475 -293.24609375 194.078125 C-296.53381225 192.79101818 -299.17212027 191.10446863 -302 189 C-302.99 188.29875 -303.98 187.5975 -305 186.875 C-309.11530527 183.3522125 -311.51390626 178.74173497 -314 174 C-314.41765625 173.23816406 -314.8353125 172.47632813 -315.265625 171.69140625 C-319.69588187 162.4409051 -319.30176554 151.33111634 -316.5 141.625 C-311.9655876 129.89916864 -302.65398338 121.53892299 -291.5 116.1875 C-281.07077931 111.79624918 -270.15636225 110.41750874 -259 113 C-258.9175 111.72125 -258.835 110.4425 -258.75 109.125 C-257.29136618 96.39692131 -250.19652989 87.24426512 -240.76953125 79.046875 C-228.83177647 70.22404918 -214.28530603 68.89086058 -200 71 C-195.87820307 72.06895979 -191.95064673 73.41854776 -188 75 C-187.06414062 75.37253906 -186.12828125 75.74507813 -185.1640625 76.12890625 C-184.09285156 76.56009766 -184.09285156 76.56009766 -183 77 C-182.89558594 76.26394531 -182.79117188 75.52789062 -182.68359375 74.76953125 C-180.58740749 66.27698233 -172.02932559 59.56359327 -165 55 C-151.59410294 48.33837668 -136.69286068 46.49304001 -122.0625 50.4375 C-112.10603539 54.05569977 -103.32186071 60.51064419 -97 69 C-96.69449219 68.41734375 -96.38898438 67.8346875 -96.07421875 67.234375 C-84.67867951 46.81870469 -66.45906099 36.4381273 -46.23828125 26.19921875 C-34.96757224 20.47520661 -12.03073822 0 0 0 Z M-46 69 C-54.39177157 78.69364505 -54.39177157 78.69364505 -62 89 C-60.6910428 92.12197478 -60.6910428 92.12197478 -58 94 C-57.34644531 92.64068359 -57.34644531 92.64068359 -56.6796875 91.25390625 C-53.22453162 84.15635489 -49.63684802 77.4202511 -45 71 C-45.33 70.34 -45.66 69.68 -46 69 Z " fill="#FDFEFD" transform="translate(402,101)"/>
<path d="M0 0 C0.04646827 9.88409648 0.0819426 19.7681667 0.10362434 29.65235043 C0.11403376 34.24263828 0.12814073 38.83285105 0.15087891 43.4230957 C0.17270905 47.85810134 0.18458998 52.29303504 0.18975449 56.72809029 C0.19343205 58.41485284 0.20061316 60.10161174 0.21146011 61.78834343 C0.31188082 78.06040929 0.31188082 78.06040929 -2 86 C-2.93682617 85.98428955 -3.87365234 85.9685791 -4.83886719 85.95239258 C-8.37261686 85.9007334 -11.90595527 85.86339578 -15.43994141 85.83520508 C-16.95856121 85.82027888 -18.47713917 85.79993041 -19.99560547 85.77368164 C-31.81037109 85.57481925 -42.40698956 86.40866597 -53.25 91.6875 C-54.16265625 92.12449219 -55.0753125 92.56148438 -56.015625 93.01171875 C-56.67046875 93.33785156 -57.3253125 93.66398437 -58 94 C-57.49844814 88.67501327 -54.65564273 84.64794605 -51.9375 80.1875 C-51.46505859 79.39923828 -50.99261719 78.61097656 -50.50585938 77.79882812 C-49.34368685 75.86187392 -48.17495583 73.92921705 -47 72 C-50.50118525 76.05489531 -53.96296666 80.13046128 -57.3125 84.3125 C-57.98925781 85.15425781 -58.66601562 85.99601562 -59.36328125 86.86328125 C-61.02600819 88.8946235 -61.02600819 88.8946235 -62 91 C-63.01513672 90.58427734 -63.01513672 90.58427734 -64.05078125 90.16015625 C-67.40589441 88.84033028 -70.78138583 87.61993342 -74.1875 86.4375 C-74.84733887 86.20627441 -75.50717773 85.97504883 -76.18701172 85.73681641 C-80.12926854 84.41824914 -83.48442355 83.81896212 -87.625 83.875 C-89.96484375 83.7578125 -89.96484375 83.7578125 -92 83 C-95.05168205 78.96280815 -97.22496149 74.53558286 -96.76953125 69.40234375 C-89.47465828 46.62900935 -62.18642856 34.35838214 -42.7277832 24.19897461 C-41.53221802 23.57454468 -41.53221802 23.57454468 -40.3125 22.9375 C-39.5186792 22.52314697 -38.7248584 22.10879395 -37.90698242 21.68188477 C-27.03220397 15.96699191 -16.61654225 9.54198335 -6.3894043 2.74194336 C-2.21474485 0 -2.21474485 0 0 0 Z " fill="#62B0F5" transform="translate(402,101)"/>
<path d="M0 0 C7.72233664 4.3911326 12.62388187 10.02348938 15.59277344 18.42425537 C17.80626474 27.31297675 16.60529367 37.06909309 16.1875 46.125 C16.11260113 48.41330632 16.04096031 50.70172171 15.97265625 52.99023438 C15.83556571 57.13544444 15.69225601 61.27986912 15.50390625 65.4230957 C15.44891968 66.66214409 15.44891968 66.66214409 15.39282227 67.92622375 C15.1875 69.8125 15.1875 69.8125 14.1875 70.8125 C6.85532609 71.28554348 6.85532609 71.28554348 4.5 69.6171875 C2.83588338 67.32902715 2.508764 65.47056461 2.0625 62.6875 C1.75027078 59.45035413 1.75027078 59.45035413 0.1875 56.8125 C-1.76672866 56.66082852 -3.72759729 56.59070004 -5.6875 56.5625 C-6.75742188 56.53671875 -7.82734375 56.5109375 -8.9296875 56.484375 C-11.77444765 56.58997249 -11.77444765 56.58997249 -13.66796875 58.0234375 C-15.14639873 60.33443043 -15.17948156 61.9580214 -15.25 64.6875 C-15.56792914 69.22461375 -16.39685918 71.60386772 -19.8125 74.8125 C-23.52518231 76.66884116 -27.76063255 76.25994549 -31.8125 75.8125 C-35.19359809 74.18232771 -37.12079151 73.05805069 -38.94921875 69.765625 C-40.17487346 65.57288761 -40.15202152 61.59808081 -40.125 57.25 C-40.12081055 56.32977051 -40.11662109 55.40954102 -40.11230469 54.46142578 C-39.83091369 36.90442377 -38.07126007 17.99653378 -25.046875 5.05859375 C-17.62414355 -1.63800093 -9.58980782 -2.98698932 0 0 Z " fill="#64B1F5" transform="translate(216.8125,182.1875)"/>
<path d="M0 0 C0.87366211 0.00201416 1.74732422 0.00402832 2.64746094 0.00610352 C13.65335977 0.16362709 24.5825181 1.43630409 35.51953125 2.578125 C43.60924348 3.41747571 51.68757829 3.96239193 59.8125 4.3125 C58.25930054 8.75881064 55.88989941 12.51336801 53.3046875 16.4140625 C52.86037384 17.09117279 52.41606018 17.76828308 51.95828247 18.46591187 C51.01729599 19.89779057 50.07412148 21.32823347 49.12890625 22.75732422 C47.70811733 24.90631559 46.29491047 27.06013443 44.8828125 29.21484375 C42.22055464 33.26635001 39.52972067 37.29765822 36.8125 41.3125 C36.21483826 42.19681702 36.21483826 42.19681702 35.60510254 43.09899902 C34.52308423 44.68685429 33.42230488 46.26187881 32.3203125 47.8359375 C31.71074707 48.70911621 31.10118164 49.58229492 30.47314453 50.48193359 C29.65112549 51.38806396 29.65112549 51.38806396 28.8125 52.3125 C27.8225 52.3125 26.8325 52.3125 25.8125 52.3125 C24.7421875 50.80859375 24.7421875 50.80859375 23.6875 48.75 C18.37555744 39.83913777 8.54571629 34.29429474 -1.1875 31.3125 C-3.6361605 31.07677534 -6.06740713 30.98598765 -8.52563477 30.90234375 C-18.87104297 30.5359584 -18.87104297 30.5359584 -21.65283203 27.95068359 C-23.66299593 25.032867 -24.75114686 22.14264665 -25.93359375 18.79296875 C-27.00118302 15.23696975 -27.00118302 15.23696975 -29.41015625 12.55078125 C-29.99667969 11.81214844 -30.58320313 11.07351562 -31.1875 10.3125 C-30.1875 7.3125 -30.1875 7.3125 -28.03515625 5.99609375 C-26.65650391 5.37927734 -26.65650391 5.37927734 -25.25 4.75 C-24.35410156 4.33621094 -23.45820313 3.92242187 -22.53515625 3.49609375 C-15.15313386 0.88611384 -7.79909711 -0.05120619 0 0 Z " fill="#62B0F5" transform="translate(377.1875,187.6875)"/>
<path d="M0 0 C0.804375 0.495 1.60875 0.99 2.4375 1.5 C3.4275 0.84 4.4175 0.18 5.4375 -0.5 C10.97750932 -1.33293846 16.1049374 -1.0453022 20.8359375 2.09375 C25.8557514 6.50139147 29.08340772 11.25089269 29.640625 17.9375 C29.65609375 18.783125 29.6715625 19.62875 29.6875 20.5 C29.71328125 21.345625 29.7390625 22.19125 29.765625 23.0625 C29.36218791 26.05946127 28.58825865 27.38790668 26.4375 29.5 C23.06833028 30.22720693 19.54670609 30.05460305 16.4375 28.5 C15.5859375 26.43359375 15.5859375 26.43359375 14.8125 23.9375 C14.42191406 22.69806641 14.42191406 22.69806641 14.0234375 21.43359375 C13.73339844 20.47646484 13.73339844 20.47646484 13.4375 19.5 C11.4575 19.5 9.4775 19.5 7.4375 19.5 C5.51600385 22.74937102 5.17745285 25.21279415 5.12890625 28.96484375 C5.10376953 30.01220703 5.07863281 31.05957031 5.05273438 32.13867188 C5.0176415 34.33392631 4.98637751 36.52924536 4.95898438 38.72460938 C4.93255859 39.77326172 4.90613281 40.82191406 4.87890625 41.90234375 C4.86545166 42.85616943 4.85199707 43.80999512 4.83813477 44.79272461 C4.2231805 48.94825654 2.48053834 51.61034965 -0.6875 54.3125 C-4.59558706 55.92670987 -8.42318014 56.57735722 -12.5625 55.5 C-16.14669154 52.83364864 -17.40738542 51.29528359 -18.26953125 46.875 C-18.33173347 45.41756974 -18.3648276 43.95872156 -18.375 42.5 C-18.39506104 41.70198975 -18.41512207 40.90397949 -18.43579102 40.08178711 C-18.47487659 38.26811497 -18.5016218 36.45415094 -18.51855469 34.64013672 C-18.56849823 31.07139342 -18.69612964 27.50831333 -18.8203125 23.94140625 C-18.88323669 21.31517498 -18.94313877 18.68886954 -19 16.0625 C-19.04680908 14.78826172 -19.09361816 13.51402344 -19.1418457 12.20117188 C-19.24521757 3.2011694 -19.24521757 3.2011694 -15.81640625 -0.3203125 C-10.0480811 -2.41159004 -5.67625907 -2.39000382 0 0 Z " fill="#64B1F5" transform="translate(287.5625,206.5)"/>
<path d="M0 0 C3.64189841 2.45094585 6.29914708 5.46946324 8.1875 9.4375 C8.8125 13.0625 8.8125 13.0625 8.1875 16.4375 C3.71118832 22.35778319 -3.81145981 27.03941643 -10.8125 29.4375 C-11.8025 29.4375 -12.7925 29.4375 -13.8125 29.4375 C-11.98781681 31.87041092 -11.0558457 32.39964622 -8 32.875 C-3.21208255 32.21783486 -0.17433106 29.79933106 3.1875 26.4375 C6.3179173 26.10447688 8.36648298 25.96078044 11.125 27.5625 C12.1875 29.4375 12.1875 29.4375 12.1875 32.3125 C10.20123069 38.5195916 5.99163196 40.73595521 0.5 43.75 C-6.65369242 47.15986813 -12.03834935 47.6326477 -19.5625 45.25 C-26.17670966 41.56130615 -30.27351152 37.57653819 -32.8125 30.4375 C-32.8125 29.4475 -32.8125 28.4575 -32.8125 27.4375 C-31.3584375 26.880625 -31.3584375 26.880625 -29.875 26.3125 C-26.59883143 24.71995313 -26.59883143 24.71995313 -25.625 21.5625 C-25.51270359 18.20840782 -25.51270359 18.20840782 -28.25 15.5625 C-29.095625 14.86125 -29.94125 14.16 -30.8125 13.4375 C-29.44432521 7.79377897 -25.28643096 4.7500083 -20.8125 1.4375 C-14.41430213 -2.23553952 -6.78916692 -3.4315615 0 0 Z " fill="#65B1F5" transform="translate(337.8125,258.5625)"/>
<path d="M0 0 C2.67942484 1.87559739 3.63285766 2.62828757 4.5 5.75 C4.4071875 7.4825 4.4071875 7.4825 4.3125 9.25 C4.374375 10.405 4.43625 11.56 4.5 12.75 C5.304375 13.36875 6.10875 13.9875 6.9375 14.625 C9.75277777 16.95962059 9.90357949 17.27363328 10.3125 20.6875 C10.4075635 22.37347907 10.46589268 24.06168747 10.5 25.75 C10.55800781 27.38388672 10.55800781 27.38388672 10.6171875 29.05078125 C10.86504895 41.20976224 10.86504895 41.20976224 6.8125 45.5625 C3.50356297 47.26168388 1.16499218 47.20812402 -2.5 46.75 C-3.08523438 46.09515625 -3.67046875 45.4403125 -4.2734375 44.765625 C-7.34185608 41.9878987 -9.54506947 42.1860052 -13.625 42.0625 C-20.36547085 41.81726457 -20.36547085 41.81726457 -22.5 40.75 C-22.5 40.09 -22.5 39.43 -22.5 38.75 C-20.19 38.75 -17.88 38.75 -15.5 38.75 C-15.5 38.09 -15.5 37.43 -15.5 36.75 C-16.82 36.75 -18.14 36.75 -19.5 36.75 C-19.5825 35.656875 -19.665 34.56375 -19.75 33.4375 C-20.18248408 29.80195445 -20.18248408 29.80195445 -22.1875 27.75 C-25.27979844 26.41278986 -27.28776145 26.94694036 -30.5 27.75 C-30.5 24.99148208 -29.89171164 23.24485464 -28.1796875 21.08203125 C-23.05416952 16.41137526 -18.06604027 16.22265511 -11.42919922 16.4440918 C-9.78496284 16.52503434 -8.14217318 16.6345347 -6.5 16.75 C-6.995 14.275 -6.995 14.275 -7.5 11.75 C-10.35078091 10.98283149 -10.35078091 10.98283149 -13.5 10.75 C-13.974375 11.245 -14.44875 11.74 -14.9375 12.25 C-15.453125 12.745 -15.96875 13.24 -16.5 13.75 C-20.1875 13.4375 -20.1875 13.4375 -23.5 12.75 C-23.5 8.13688711 -22.76011443 5.75988044 -20.5 1.75 C-14.16367197 -2.25869732 -7.00857438 -2.50306228 0 0 Z " fill="#65B1F5" transform="translate(277.5,270.25)"/>
<path d="M0 0 C1.69962891 -0.04253906 1.69962891 -0.04253906 3.43359375 -0.0859375 C6.5625 0.375 6.5625 0.375 8.92578125 1.91796875 C11.13942001 5.24106846 11.23991457 8.18861965 11.3125 12.0625 C11.35370972 13.25081421 11.35370972 13.25081421 11.39575195 14.46313477 C11.48208543 17.43382873 11.52476801 20.40328054 11.5625 23.375 C11.58314738 24.7272139 11.6038194 26.07942742 11.62451172 27.43164062 C11.67754281 31.14233097 11.71260602 34.85287953 11.73571777 38.56387329 C11.74521921 40.05980159 11.75717173 41.55571639 11.77160645 43.05160522 C11.78943828 45.17905568 11.79323809 47.30607741 11.79296875 49.43359375 C11.79707764 50.67423584 11.80118652 51.91487793 11.80541992 53.19311523 C11.57443859 56.21862245 11.22865667 57.87965875 9.5625 60.375 C6.48981908 62.4908373 3.74083752 62.69947339 0.0625 62.75 C-1.34515625 62.79253906 -1.34515625 62.79253906 -2.78125 62.8359375 C-6.25070638 62.23388478 -7.24891147 61.09571952 -9.4375 58.375 C-9.93870544 55.78146362 -9.93870544 55.78146362 -9.93920898 52.81201172 C-9.94858994 51.69760712 -9.95797089 50.58320251 -9.96763611 49.43502808 C-9.95640213 48.23701569 -9.94516815 47.0390033 -9.93359375 45.8046875 C-9.93504898 44.57211212 -9.93650421 43.33953674 -9.93800354 42.0696106 C-9.9359189 38.79858463 -9.91487525 35.52832983 -9.88702393 32.25744629 C-9.87499269 30.24878018 -9.87664117 28.2406187 -9.88354492 26.23193359 C-9.89609579 22.38094926 -9.88749643 18.53064688 -9.87109375 14.6796875 C-9.87402939 13.47762665 -9.87696503 12.2755658 -9.87998962 11.03707886 C-9.86730545 9.92897858 -9.85462128 8.8208783 -9.84155273 7.67919922 C-9.83614975 6.70087128 -9.83074677 5.72254333 -9.82518005 4.71456909 C-9.69724564 3.94251129 -9.56931122 3.17045349 -9.4375 2.375 C-5.90513908 0.02009272 -4.19029632 0.04756295 0 0 Z " fill="#64B1F5" transform="translate(243.4375,204.625)"/>
<path d="M0 0 C7.43393202 -0.7503408 12.1015834 -0.08638874 18.22265625 4.296875 C20.18014237 6.17261994 21.22311499 7.39429873 22 10 C21.38113488 11.68500094 20.70739915 13.35020951 20 15 C19.68529834 18.21759069 19.68529834 18.21759069 19.75 21.5625 C19.74484375 22.67753906 19.7396875 23.79257812 19.734375 24.94140625 C19.99132038 27.90005672 20.55087484 29.46978146 22 32 C22 33.9375 22 33.9375 21 36 C16.19536431 40.58116427 11.46042326 44.08576295 4.625 44.4375 C-0.94460106 44.22184205 -5.4406734 42.37094977 -9.5390625 38.57421875 C-13.73783038 33.82298141 -15.85250336 28.80616837 -15.7890625 22.47265625 C-14.31838124 17.86403625 -10.37056687 15.29645349 -6.69921875 12.359375 C-2.55562951 8.73748223 -0.77549471 5.42846298 0 0 Z " fill="#66B2F5" transform="translate(197,269)"/>
<path d="M0 0 C1 1 1 1 1.25 3.875 C1 7 1 7 -0.14453125 8.66796875 C-3.40268631 11.00698112 -7.19961446 10.42378466 -11.08984375 10.49609375 C-14.64295 11.1113296 -15.77031914 12.23229871 -18 15 C-19.23621824 17.47243647 -18.98408601 18.77317939 -18.6875 21.5 C-18.60886719 22.2940625 -18.53023437 23.088125 -18.44921875 23.90625 C-18.1534758 26.20854909 -18.1534758 26.20854909 -16 28 C-14.06227625 28.2819387 -14.06227625 28.2819387 -11.875 28.1875 C-10.67617187 28.16816406 -10.67617187 28.16816406 -9.453125 28.1484375 C-7.13280954 28.00803625 -4.91596186 27.69432698 -2.625 27.3125 C1 27 1 27 3 28.125 C4.38392137 30.71985256 4.56601206 32.09918817 4 35 C-0.73213681 39.73213681 -5.59956824 41.30108728 -12.1875 41.4375 C-18.75966357 41.30367766 -23.7760388 40.09241726 -29 36 C-34.43126339 29.77067342 -36.5509918 24.26487707 -36 16 C-34.40017326 9.48731951 -31.41291564 4.30159258 -25.8046875 0.51953125 C-16.81541285 -4.51051742 -9.22593055 -4.19360479 0 0 Z " fill="#66B2F5" transform="translate(253,271)"/>
<path d="M0 0 C0.88945312 0.00644531 1.77890625 0.01289063 2.6953125 0.01953125 C4.875 0.1875 4.875 0.1875 5.875 1.1875 C5.94758946 3.37389453 5.95873783 5.56250389 5.9375 7.75 C5.92847656 8.94753906 5.91945313 10.14507812 5.91015625 11.37890625 C5.89855469 12.30574219 5.88695312 13.23257812 5.875 14.1875 C6.66261719 14.16429687 7.45023437 14.14109375 8.26171875 14.1171875 C10.875 14.1875 10.875 14.1875 12.6875 15.3125 C14.40349028 18.02195834 14.208728 20.05045684 13.875 23.1875 C11.875 25.1875 11.875 25.1875 9.25 25.3125 C8.46625 25.27125 7.6825 25.23 6.875 25.1875 C6.96260589 27.25076977 7.07079273 29.3131716 7.1875 31.375 C7.24550781 32.52355469 7.30351562 33.67210937 7.36328125 34.85546875 C7.90459622 38.38021434 8.74200365 40.35549762 10.875 43.1875 C13.41270003 44.47004644 13.41270003 44.47004644 15.875 45.1875 C17.46394072 46.77644072 17.04498411 48.43551424 17.0625 50.625 C17.07667969 51.42808594 17.09085937 52.23117187 17.10546875 53.05859375 C16.875 55.1875 16.875 55.1875 14.875 57.1875 C9.30932194 58.04461442 4.55544584 57.41180714 -0.125 54.1875 C-4.82266961 49.92918079 -7.49865543 45.5970928 -8.125 39.1875 C-8.26466307 34.84796879 -8.24407712 30.52719962 -8.125 26.1875 C-8.90875 26.084375 -9.6925 25.98125 -10.5 25.875 C-13.125 25.1875 -13.125 25.1875 -15.125 22.1875 C-14.8008631 18.86509676 -14.51723697 17.57973697 -12.125 15.1875 C-10.805 15.1875 -9.485 15.1875 -8.125 15.1875 C-8.15980469 14.27226562 -8.19460938 13.35703125 -8.23046875 12.4140625 C-8.25753906 11.22554688 -8.28460938 10.03703125 -8.3125 8.8125 C-8.34730469 7.62914062 -8.38210938 6.44578125 -8.41796875 5.2265625 C-8.32128906 4.22367187 -8.22460938 3.22078125 -8.125 2.1875 C-4.84237969 -0.00091354 -3.80709102 -0.06104665 0 0 Z " fill="#64B1F5" transform="translate(297.125,258.8125)"/>
<path d="M0 0 C1.16015625 0.02900391 1.16015625 0.02900391 2.34375 0.05859375 C3.1171875 0.05988281 3.890625 0.06117188 4.6875 0.0625 C7.36021041 0.5999472 8.28813031 1.2680449 9.84375 3.49609375 C10.0234375 5.4140625 10.0234375 5.4140625 9.71875 7.68359375 C9.60402344 8.55113281 9.48929688 9.41867187 9.37109375 10.3125 C8.30824463 16.72895953 7.1024605 23.11546063 5.84375 29.49609375 C9.33746034 27.57306003 11.77256252 25.71333683 14.28125 22.62109375 C17.27113414 19.1123577 20.00722187 16.0815801 23.84375 13.49609375 C27.44755177 13.57990309 28.80750279 14.47192894 31.84375 16.49609375 C32.60186592 19.52855744 32.74852728 20.594382 31.84375 23.49609375 C24.92559534 33.54981491 12.94963904 44.71062531 0.65625 47.12109375 C-3.63371458 46.16776829 -4.79163914 44.15049235 -7.15625 40.49609375 C-6.82625 39.50609375 -6.49625 38.51609375 -6.15625 37.49609375 C-5.3209375 38.45515625 -5.3209375 38.45515625 -4.46875 39.43359375 C-1.93558439 41.69290362 -0.47283576 42.12758422 2.84375 42.49609375 C1.99368914 40.22892946 1.99368914 40.22892946 -0.65625 39.55859375 C-1.89375 39.03265625 -1.89375 39.03265625 -3.15625 38.49609375 C-3.65125 37.01109375 -3.65125 37.01109375 -4.15625 35.49609375 C-6.13625 35.99109375 -6.13625 35.99109375 -8.15625 36.49609375 C-8.24472317 33.03792689 -8.29712725 29.58005796 -8.34375 26.12109375 C-8.36888672 25.15558594 -8.39402344 24.19007813 -8.41992188 23.1953125 C-8.48709853 16.52243185 -8.36115066 1.92367053 0 0 Z " fill="#65B1F5" transform="translate(163.15625,251.50390625)"/>
<path d="M0 0 C1.03125 -0.00773438 2.0625 -0.01546875 3.125 -0.0234375 C6.35695369 0.42446913 7.74526878 1.03538478 10 3.375 C10.66096533 8.0017573 10.93927951 10.12262732 8.125 13.875 C3.68059621 16.00831382 -0.1578646 16.13704098 -5 15.375 C-8.125 13.875 -8.125 13.875 -10 11.375 C-10.67319415 8.36078837 -10.45377121 6.55139847 -10 3.375 C-6.92180819 0.18092332 -4.32505173 -0.03243789 0 0 Z " fill="#67B2F5" transform="translate(244,186.625)"/>
<path d="M0 0 C3.0625 0.375 3.0625 0.375 4.8125 2 C7.92034677 7.90490886 8.0625 11.37135783 8.0625 18.375 C2.7825 18.705 -2.4975 19.035 -7.9375 19.375 C-7.9375 10.32549505 -7.9375 10.32549505 -6.5625 6.5 C-6.30726563 5.76007813 -6.05203125 5.02015625 -5.7890625 4.2578125 C-4.37066464 1.12172182 -3.43029308 0.43790976 0 0 Z " fill="#F9FCFC" transform="translate(208.9375,202.625)"/>
<path d="M0 0 C2.5 0.6875 2.5 0.6875 4.8125 2.6875 C6.93215785 6.45578063 7.15304022 9.5080426 6.5 13.6875 C5.4375 17.125 5.4375 17.125 3.5 19.6875 C-0.1875 20.5625 -0.1875 20.5625 -3.5 20.6875 C-6.84788419 16.83343703 -7.01314124 14.13674909 -6.8515625 9.171875 C-6.20687998 4.6161185 -4.58102227 1.25978112 0 0 Z " fill="#FAFCFD" transform="translate(203.5,279.3125)"/>
<path d="M0 0 C0.33 1.32 0.66 2.64 1 4 C-9.2 10 -9.2 10 -14 10 C-14.4375 7.875 -14.4375 7.875 -14 5 C-9.96158033 -0.24033029 -6.56559154 -1.8758833 0 0 Z " fill="#F5FAFD" transform="translate(334,270)"/>
<path d="M0 0 C0.7940625 0.01417969 1.588125 0.02835937 2.40625 0.04296875 C3.59734375 0.05263672 3.59734375 0.05263672 4.8125 0.0625 C6.90625 0.23046875 6.90625 0.23046875 8.90625 1.23046875 C8.57625 2.88046875 8.24625 4.53046875 7.90625 6.23046875 C4.60625 6.23046875 1.30625 6.23046875 -2.09375 6.23046875 C-2.75375 4.91046875 -3.41375 3.59046875 -4.09375 2.23046875 C-2.09375 0.23046875 -2.09375 0.23046875 0 0 Z " fill="#F0F7FD" transform="translate(263.09375,295.76953125)"/>
<path d="M0 0 C0.66 0 1.32 0 2 0 C2.66 0.99 3.32 1.98 4 3 C6.05925139 3.72382467 6.05925139 3.72382467 8 4 C8.22224251 6.58281836 8.42823488 9.16522187 8.625 11.75 C8.68945312 12.47960937 8.75390625 13.20921875 8.8203125 13.9609375 C9.10381649 17.85911736 9.27081383 20.70645322 7 24 C6.91363281 22.74703125 6.82726562 21.4940625 6.73828125 20.203125 C6.59755868 18.55198023 6.45556489 16.90094346 6.3125 15.25 C6.25900391 14.425 6.20550781 13.6 6.15039062 12.75 C5.70195169 7.53396147 5.70195169 7.53396147 2.41796875 3.546875 C1.62003906 3.03640625 0.82210938 2.5259375 0 2 C0 1.34 0 0.68 0 0 Z " fill="#DAECFC" transform="translate(281,281)"/>
<path d="M0 0 C0.99 0.33 1.98 0.66 3 1 C3.74118205 3.31074405 4.40206327 5.64811553 5 8 C5.62469505 9.35350594 6.2716331 10.69934483 7 12 C6.01 12.495 6.01 12.495 5 13 C0.17970402 9.14376321 0.17970402 9.14376321 -0.33203125 5.88671875 C-0.3145776 3.92143786 -0.16596091 1.95833873 0 0 Z " fill="#F0F7FE" transform="translate(238,250)"/>
<path d="M0 0 C2.875 1.5 2.875 1.5 5 3 C4.67 3.99 4.34 4.98 4 6 C3.319375 5.67 2.63875 5.34 1.9375 5 C-1.50840238 3.82692685 -4.38397422 3.85819507 -8 4 C-8 3.01 -8 2.02 -8 1 C-5.17998673 -0.41000664 -3.12992745 -0.24548451 0 0 Z " fill="#F2F8FE" transform="translate(302,213)"/>
<path d="M0 0 C0 0.99 0 1.98 0 3 C-0.763125 3.2475 -1.52625 3.495 -2.3125 3.75 C-5.26180029 5.12176758 -6.17431019 6.3918717 -8 9 C-8.66 9 -9.32 9 -10 9 C-10.3125 6.75 -10.3125 6.75 -10 4 C-6.8072686 0.6248268 -4.63993968 -0.53027882 0 0 Z " fill="#F2F8FE" transform="translate(201,190)"/>
<path d="M0 0 C1.8125 1.125 1.8125 1.125 3 3 C3.1875 6.6875 3.1875 6.6875 3 10 C4.32 10 5.64 10 7 10 C7 10.66 7 11.32 7 12 C4.69 12 2.38 12 0 12 C-0.33 12.66 -0.66 13.32 -1 14 C-0.125 10.125 -0.125 10.125 1 9 C1.2500773 6.54190002 1.2500773 6.54190002 1 4 C-0.89755144 1.65026182 -0.89755144 1.65026182 -4.125 1.875 C-5.07375 1.91625 -6.0225 1.9575 -7 2 C-7 1.34 -7 0.68 -7 0 C-4.26634878 -1.36682561 -2.89333621 -0.84683011 0 0 Z " fill="#E6F2FD" transform="translate(255,297)"/>
<path d="M0 0 C0.99 0 1.98 0 3 0 C3.268125 0.94875 3.53625 1.8975 3.8125 2.875 C4.74986588 6.25267273 4.74986588 6.25267273 8 8 C8 8.99 8 9.98 8 11 C5.02545866 10.67842796 3.40664722 10.37860258 1.1875 8.3125 C-0.3082321 5.39975854 -0.22022756 3.23000416 0 0 Z " fill="#F3F9FE" transform="translate(186,295)"/>
<path d="M0 0 C0.66 0.99 1.32 1.98 2 3 C4.55183404 4.20450304 4.55183404 4.20450304 7 5 C7 5.66 7 6.32 7 7 C-0.74468085 6.25531915 -0.74468085 6.25531915 -4 3 C-4 2.34 -4 1.68 -4 1 C-2 0 -2 0 0 0 Z " fill="#E2F0FD" transform="translate(159,287)"/>
<path d="M0 0 C0.99 0.33 1.98 0.66 3 1 C2.34 3.97 1.68 6.94 1 10 C0.34 10 -0.32 10 -1 10 C-2.25 3.375 -2.25 3.375 0 0 Z " fill="#E8F3FD" transform="translate(228,285)"/>
<path d="M0 0 C0.99 0 1.98 0 3 0 C4.02028865 1.31787285 5.01971384 2.65210653 6 4 C6.99 4.33 7.98 4.66 9 5 C9 5.66 9 6.32 9 7 C3.49411765 6.51058824 3.49411765 6.51058824 1.125 4.0625 C0 2 0 2 0 0 Z " fill="#EEF6FD" transform="translate(294,303)"/>
<path d="M0 0 C1.6396875 0.2475 1.6396875 0.2475 3.3125 0.5 C6.87525873 1.06718184 6.87525873 1.06718184 10 1 C9.67 1.99 9.34 2.98 9 4 C6.36 4 3.72 4 1 4 C0.67 2.68 0.34 1.36 0 0 Z " fill="#EFF7FE" transform="translate(323,296)"/>
</svg>
